<?xml version="1.0" encoding="UTF-8"?><svg id="Layer_2" xmlns="http://www.w3.org/2000/svg" xmlns:xlink="http://www.w3.org/1999/xlink" viewBox="0 0 290.55 85.92"><defs><style>.cls-1{fill:url(#linear-gradient-2);}.cls-2{font-family:CenturyGothic, 'Century Gothic';font-size:11.34px;letter-spacing:.2em;}.cls-2,.cls-3{fill:#002a41;}.cls-4{fill:url(#radial-gradient);}.cls-5{fill:url(#linear-gradient-3);}.cls-6{fill:url(#linear-gradient);}.cls-7{fill:url(#linear-gradient-4);}</style><radialGradient id="radial-gradient" cx="34.45" cy="80.05" fx="34.45" fy="80.05" r="19.63" gradientTransform="translate(0 67.7) scale(1 .15)" gradientUnits="userSpaceOnUse"><stop offset="0" stop-color="#bcbec0"/><stop offset="1" stop-color="#fff" stop-opacity="0"/></radialGradient><linearGradient id="linear-gradient" x1="111.63" y1="-973.34" x2="144.14" y2="-973.34" gradientTransform="translate(168.15 -948.93) rotate(-180)" gradientUnits="userSpaceOnUse"><stop offset="0" stop-color="#ffc20e"/><stop offset="1" stop-color="#f37021"/></linearGradient><linearGradient id="linear-gradient-2" x1="10.01" y1="61.52" x2="42.52" y2="61.52" gradientUnits="userSpaceOnUse"><stop offset="0" stop-color="#00aeef"/><stop offset="1" stop-color="#102448"/></linearGradient><linearGradient id="linear-gradient-3" x1="9.49" y1="30.41" x2="66.54" y2="30.41" gradientUnits="userSpaceOnUse"><stop offset="0" stop-color="#102448"/><stop offset="1" stop-color="#00aeef"/></linearGradient><linearGradient id="linear-gradient-4" x1="111.1" y1="-1004.44" x2="168.15" y2="-1004.44" gradientTransform="translate(168.15 -948.93) rotate(-180)" gradientUnits="userSpaceOnUse"><stop offset="0" stop-color="#ed1c24"/><stop offset=".22" stop-color="#f26522"/><stop offset="1" stop-color="#ffc20e"/></linearGradient></defs><g id="Layer_1-2"><g><g><path class="cls-4" d="M53.75,80.05c0,1.57-8.64,2.85-19.3,2.85s-19.3-1.28-19.3-2.85,8.64-2.85,19.3-2.85,19.3,1.28,19.3,2.85Z"/><g><path class="cls-6" d="M51.78,17.98c-12.42-9.35-27.76-8.51-27.76-8.51,0,0,28.32,10.88,25.72,29.89,0,0,6.69-2.53,6.79-13.71,.03-3.07-3.03-6.39-4.74-7.67Z"/><path class="cls-1" d="M14.75,67.94c12.42,9.35,27.77,8.51,27.77,8.51,0,0-28.33-10.88-25.72-29.89,0,0-6.69,2.53-6.79,13.7-.03,3.07,3.03,6.39,4.74,7.67Z"/><path class="cls-5" d="M10.01,60.83s-1.4-8.51,9.21-15.49c11.35-7.47,27.88-15.8,36.6-21.22,11.67-7.24,10.69-24.12,10.69-24.12,0,0,.02,5.72-17.02,15.63-10.43,6.06-18.14,9.96-29.16,17.02-14.37,9.21-10.32,28.18-10.32,28.18Z"/><path class="cls-7" d="M56.53,25.09s1.4,8.51-9.21,15.49c-11.35,7.47-27.88,15.81-36.6,21.22C-.96,69.04,.02,85.92,.02,85.92c0,0-.02-5.72,17.02-15.63,10.43-6.06,18.14-9.96,29.16-17.02,14.37-9.21,10.32-28.18,10.32-28.18Z"/></g></g><path class="cls-3" d="M70.41,42.71v19.3h-2.28v-24.83h2.28v1.6c2.07-2.06,4.49-3.09,7.23-3.09,2.93,0,5.32,.92,7.16,2.75,1.84,1.84,2.78,4.16,2.83,6.95v16.62h-2.28v-16.41c0-2.11-.76-3.9-2.29-5.4-1.53-1.49-3.33-2.24-5.42-2.24s-3.9,.73-5.41,2.2c-.83,.83-1.44,1.68-1.82,2.55Z"/><path class="cls-3" d="M122.02,62h-2.27v-5.06c-.44,.59-.92,1.16-1.44,1.7-3.91,3.91-8.98,4.99-15.23,3.29-7.43-4.19-9.98-10.4-7.68-18.58,3.21-5.62,7.56-8.42,13.07-8.42,3.84,0,7.12,1.35,9.84,4.07,.52,.55,1,1.11,1.44,1.7v-3.52h2.27v24.83Zm-2.27-10.92v-4.5c-.68-3.56-2.95-6.41-6.86-8.59-6.73-1.84-11.79,.29-15.25,6.36-1.43,5.18-.53,9.37,2.71,12.59,3.22,3.2,7.39,4.12,12.54,2.71,3.91-2.18,6.18-5.04,6.86-8.57Z"/><path class="cls-3" d="M131.88,21.55V62h-2.28V21.55h2.28Z"/><path class="cls-3" d="M166.27,62h-2.28v-5.06c-.44,.59-.91,1.16-1.44,1.7-2.71,2.72-5.99,4.07-9.83,4.07s-7.1-1.35-9.81-4.07c-3.93-3.93-5.01-9.03-3.25-15.29,3.2-5.63,7.56-8.43,13.07-8.43,3.84,0,7.12,1.35,9.83,4.07,.53,.55,1,1.11,1.44,1.7v-3.52h2.28v24.83Zm-2.28-10.92v-4.5c-.66-3.55-2.95-6.39-6.79-8.57-5.17-1.44-9.37-.53-12.6,2.71-3.23,3.23-4.14,7.4-2.72,12.56,3.42,6.08,8.54,8.23,15.31,6.35,3.84-2.18,6.13-5.03,6.8-8.55Z"/><path class="cls-3" d="M180.69,49.23c-1.94-1.04-3.28-1.94-4.02-2.68-1.16-1.17-1.74-2.56-1.74-4.2s.59-3.07,1.74-4.24c1.17-1.17,2.57-1.75,4.2-1.75s3.02,.54,4.09,1.62c1.04,1.06,1.57,2.27,1.57,3.62v.13l-1.97,.78c-.17-1.28-.57-2.24-1.2-2.88-.88-.89-2.14-1.15-3.77-.81-1.61,.83-2.41,2.01-2.41,3.55,0,1.01,.36,1.88,1.09,2.61,.42,.42,1.31,1.06,2.68,1.92,2.15,1.18,3.69,2.22,4.6,3.13,1.44,1.46,2.15,3.18,2.15,5.19,0,2.98-1.5,5.34-4.54,7.01-3.3,.88-5.97,.3-8.02-1.76-1.43-1.44-2.15-3.03-2.15-4.75l2.25-.58c0,2.16,1.06,3.8,3.2,4.93,2.26,.61,4.08,.2,5.52-1.21,1-1,1.51-2.21,1.51-3.64s-.5-2.59-1.49-3.59c-.54-.54-1.63-1.33-3.27-2.38Z"/><path class="cls-3" d="M194.14,21.55h2.28v16.92c1.92-1.86,4.23-2.78,6.92-2.78,2.94,0,5.32,.92,7.16,2.75,1.84,1.84,2.78,4.16,2.84,6.95v16.62h-2.28v-16.41c0-2.11-.77-3.9-2.29-5.4-1.52-1.49-3.33-2.24-5.43-2.24s-3.89,.73-5.41,2.2c-.67,.67-1.18,1.37-1.51,2.1v19.75h-2.28V21.55Z"/><path class="cls-3" d="M247.73,62h-2.28v-5.06c-.44,.59-.92,1.16-1.44,1.7-2.72,2.72-6,4.07-9.84,4.07s-7.1-1.35-9.81-4.07c-2.71-2.71-4.07-5.99-4.07-9.81s1.36-7.13,4.07-9.84c2.71-2.71,5.98-4.07,9.81-4.07s7.13,1.35,9.84,4.07c.52,.55,1,1.11,1.44,1.7v-3.52h2.28v24.83Zm-2.28-10.92v-4.5c-.68-3.55-2.93-6.39-6.8-8.57-6.74-1.88-11.85,.25-15.31,6.35-1.42,5.18-.52,9.36,2.71,12.58,3.24,3.22,7.44,4.13,12.59,2.69,3.87-2.18,6.13-5.03,6.81-8.55Z"/><path class="cls-3" d="M282.12,62h-2.28v-5.06c-.44,.59-.92,1.16-1.44,1.7-3.91,3.91-9,5-15.24,3.28-7.4-4.19-9.98-10.41-7.65-18.59,3.21-5.61,7.55-8.41,13.06-8.41,3.84,0,7.12,1.35,9.83,4.07,.52,.55,1,1.11,1.44,1.7v-3.52h2.28v24.83Zm-2.28-10.92v-4.5c-.66-3.55-2.95-6.4-6.8-8.58-6.76-1.87-11.86,.26-15.31,6.36-1.41,5.18-.52,9.35,2.71,12.58,3.23,3.21,7.43,4.12,12.59,2.7,3.85-2.18,6.14-5.03,6.8-8.55Z"/><text class="cls-2" transform="translate(68.13 80.4)"><tspan x="0" y="0">Think Simple. Build Powerful.</tspan></text></g></g></svg>