<svg width="398" height="492" viewBox="0 0 398 492" fill="none" xmlns="http://www.w3.org/2000/svg">
<path d="M336.216 491.76C368.984 491.76 397.656 465.136 397.656 430.32V59.632C397.656 26.864 371.032 0.23999 336.216 0.23999H61.7838C29.0158 0.23999 0.34375 26.864 0.34375 59.632V430.32C0.34375 463.088 26.9678 491.76 61.7838 491.76H336.216ZM199 80.112C242.008 80.112 274.776 114.928 274.776 155.888C274.776 198.896 239.96 233.712 199 233.712C155.992 233.712 121.176 198.896 121.176 155.888C123.224 112.88 155.992 80.112 199 80.112ZM96.5997 291.056H301.4C313.688 291.056 321.88 299.248 321.88 311.536C321.88 323.824 313.688 332.016 301.4 332.016H96.5997C84.3117 332.016 76.1197 323.824 76.1197 311.536C76.1197 299.248 86.3597 291.056 96.5997 291.056ZM96.5997 372.976H301.4C313.688 372.976 321.88 381.168 321.88 393.456C321.88 405.744 313.688 413.936 301.4 413.936H96.5997C84.3117 413.936 76.1197 405.744 76.1197 393.456C76.1197 381.168 86.3597 372.976 96.5997 372.976Z" fill="#D6D6D6"/>
</svg>
