<svg id="Layer_1" enable-background="new 0 0 64 64" viewBox="0 0 64 64" xmlns="http://www.w3.org/2000/svg"><g><g><g><path d="m52.87 64h-41.74c-3.1 0-5.63-2.52-5.63-5.63v-52.74c.01-3.1 2.53-5.63 5.63-5.63h32.99c.28 0 .54.12.72.32l13.4 15.06c.16.18.25.41.25.64v42.34c0 3.12-2.52 5.64-5.62 5.64zm-41.74-62.06c-2.03 0-3.69 1.66-3.69 3.69v52.74c0 2.03 1.65 3.69 3.69 3.69h41.73c2.03 0 3.69-1.66 3.69-3.69v-41.97l-12.86-14.46z" fill="#231f20"/></g><g><path d="m57.52 17h-13.4c-.54 0-.97-.43-.97-.97v-15.06c0-.54.43-.97.97-.97s.97.43.97.97v14.09h12.43c.54 0 .97.43.97.97s-.43.97-.97.97z" fill="#231f20"/></g></g><g><g><g><path d="m44.78 46.69h-25.56c-.54 0-.97-.43-.97-.97s.43-.97.97-.97h25.56c.54 0 .97.43.97.97 0 .53-.44.97-.97.97z" fill="#231f20"/></g><g><path d="m35.12 53.81h-15.9c-.54 0-.97-.43-.97-.97s.43-.97.97-.97h15.9c.54 0 .97.43.97.97 0 .53-.44.97-.97.97z" fill="#231f20"/></g></g><g><g><path d="m40.24 38.71h-16.48c-.54 0-.97-.43-.97-.97v-2.03c0-5.08 4.13-9.21 9.21-9.21s9.21 4.13 9.21 9.21v2.03c0 .53-.44.97-.97.97zm-15.51-1.94h14.54v-1.06c0-4.01-3.26-7.27-7.27-7.27s-7.27 3.26-7.27 7.27z" fill="#231f20"/></g><g><path d="m32 24.4c-2.85 0-5.16-2.32-5.16-5.16s2.32-5.16 5.16-5.16c2.85 0 5.16 2.32 5.16 5.16s-2.31 5.16-5.16 5.16zm0-8.39c-1.78 0-3.23 1.45-3.23 3.23s1.45 3.23 3.23 3.23 3.22-1.45 3.22-3.23-1.44-3.23-3.22-3.23z" fill="#231f20"/></g></g></g></g></svg>