<svg xmlns="http://www.w3.org/2000/svg" width="206.014" height="47.527" viewBox="0 0 206.014 47.527">
  <g id="Layer_3" transform="translate(-16.2 -8.4)">
    <g id="Group_11759" data-name="Group 11759" transform="translate(16.2 8.4)">
      <path id="Path_14509" data-name="Path 14509" d="M310.4,340.128h2.088l2.088-3.622,2.1,3.622h2.08l-4.175-7.228Z" transform="translate(-287.134 -307.238)" fill="#fff"/>
      <path id="Path_14510" data-name="Path 14510" d="M43.641,8.4,16.2,55.928H71.082Zm0,3.606L67.958,54.117H19.332Z" transform="translate(-16.2 -8.4)" fill="#fff"/>
      <path id="Path_14511" data-name="Path 14511" d="M146.483,128.087h2.08L141.351,115.6l-19.051,33h2.08l16.971-29.394Z" transform="translate(-113.91 -107.123)" fill="#fff"/>
      <path id="Path_14512" data-name="Path 14512" d="M230.864,227.9,219.5,247.583h2.08l9.284-16.077,2.815,4.879h2.088Z" transform="translate(-203.423 -210.542)" fill="#fff"/>
    </g>
    <g id="Group_11760" data-name="Group 11760" transform="translate(79.235 23.686)">
      <path id="Path_14513" data-name="Path 14513" d="M813.3,221.841V210.2h2.444v11.641Z" transform="translate(-813.3 -209.528)" fill="#fff"/>
      <path id="Path_14514" data-name="Path 14514" d="M869.2,253.7v-8.659h2.119l.063,1.1a2.735,2.735,0,0,1,1.012-.981,2.925,2.925,0,0,1,1.439-.364,2.853,2.853,0,0,1,1.55.427,2.943,2.943,0,0,1,1.06,1.178,2.976,2.976,0,0,1,1.139-1.163,3.321,3.321,0,0,1,1.716-.443,2.871,2.871,0,0,1,2.76,1.74,4.727,4.727,0,0,1,.387,1.969v5.2h-2.293v-4.9a2.281,2.281,0,0,0-.4-1.416,1.285,1.285,0,0,0-1.1-.514,1.66,1.66,0,0,0-.878.237,1.633,1.633,0,0,0-.6.664,2.135,2.135,0,0,0-.213.965V253.7h-2.293v-4.9a2.281,2.281,0,0,0-.4-1.416,1.285,1.285,0,0,0-1.1-.514,1.66,1.66,0,0,0-.878.237,1.632,1.632,0,0,0-.6.664,2.134,2.134,0,0,0-.214.965V253.7Z" transform="translate(-864.779 -241.386)" fill="#fff"/>
      <path id="Path_14515" data-name="Path 14515" d="M1059.9,256.882V245.043h2.111l.063,1.265a3.17,3.17,0,0,1,1.178-1.107,3.33,3.33,0,0,1,1.621-.4,3.613,3.613,0,0,1,1.574.348,3.914,3.914,0,0,1,1.265.957,4.537,4.537,0,0,1,.846,1.431,5.019,5.019,0,0,1,.3,1.787,5.2,5.2,0,0,1-.308,1.819,4.606,4.606,0,0,1-.87,1.463,3.893,3.893,0,0,1-1.313.981,3.764,3.764,0,0,1-1.621.356,3.306,3.306,0,0,1-1.463-.316,3.1,3.1,0,0,1-1.1-.894v4.144H1059.9Zm4.444-5.006a2.021,2.021,0,0,0,1.115-.324,2.192,2.192,0,0,0,.775-.894,3.059,3.059,0,0,0,0-2.578,2.309,2.309,0,0,0-.775-.894,1.923,1.923,0,0,0-1.115-.324,2,2,0,0,0-1.115.324,2.31,2.31,0,0,0-.775.894,3.06,3.06,0,0,0,0,2.578,2.31,2.31,0,0,0,.775.894A1.942,1.942,0,0,0,1064.344,251.876Z" transform="translate(-1040.399 -241.39)" fill="#fff"/>
      <path id="Path_14516" data-name="Path 14516" d="M1193.72,254.039a4.658,4.658,0,0,1-1.779-.332,3.993,3.993,0,0,1-1.4-.949,4.337,4.337,0,0,1-.917-1.463,5.285,5.285,0,0,1,0-3.646,4.374,4.374,0,0,1,.909-1.447,4.151,4.151,0,0,1,1.368-.957,4.2,4.2,0,0,1,1.708-.348,4.534,4.534,0,0,1,1.732.324,3.809,3.809,0,0,1,1.336.933,4.305,4.305,0,0,1,.862,1.439,5.341,5.341,0,0,1,.3,1.866v.577h-6.216a2.6,2.6,0,0,0,.7,1.518,1.927,1.927,0,0,0,1.408.546,2.111,2.111,0,0,0,1.874-1.083l2.048.656a3.373,3.373,0,0,1-.886,1.265,4.436,4.436,0,0,1-1.376.815,4.7,4.7,0,0,1-1.677.285Zm-.111-7.378a1.794,1.794,0,0,0-1.273.49,2.4,2.4,0,0,0-.68,1.344h3.82a2.309,2.309,0,0,0-.633-1.344,1.7,1.7,0,0,0-1.234-.49Z" transform="translate(-1159.565 -241.481)" fill="#fff"/>
      <path id="Path_14517" data-name="Path 14517" d="M1315.3,255.172v-8.659h2.111l.079,1.313a2.565,2.565,0,0,1,.886-1.06,2.326,2.326,0,0,1,1.313-.372,3,3,0,0,1,.459.04,2.6,2.6,0,0,1,.411.1l-.245,2.262a1.5,1.5,0,0,0-.372-.087,3.1,3.1,0,0,0-.387-.024,1.821,1.821,0,0,0-1.455.585,2.424,2.424,0,0,0-.506,1.645v4.247H1315.3Z" transform="translate(-1275.601 -242.859)" fill="#fff"/>
      <path id="Path_14518" data-name="Path 14518" d="M1395.09,254.04a4.559,4.559,0,0,1-1.787-.348,4.3,4.3,0,0,1-1.423-.957,4.356,4.356,0,0,1-.941-1.447,4.894,4.894,0,0,1-.34-1.819,4.677,4.677,0,0,1,.348-1.811,4.405,4.405,0,0,1,.957-1.447,4.476,4.476,0,0,1,1.439-.965,4.678,4.678,0,0,1,1.811-.348,4.559,4.559,0,0,1,1.787.348,4.3,4.3,0,0,1,1.423.957,4.4,4.4,0,0,1,.941,1.439,4.819,4.819,0,0,1,.332,1.811,4.717,4.717,0,0,1-.348,1.819,4.473,4.473,0,0,1-.957,1.463,4.349,4.349,0,0,1-1.439.965,4.783,4.783,0,0,1-1.8.34Zm.032-2.072a2.022,2.022,0,0,0,1.115-.324,2.313,2.313,0,0,0,.775-.894,3.061,3.061,0,0,0,0-2.578,2.313,2.313,0,0,0-.775-.894,1.924,1.924,0,0,0-1.115-.324,2,2,0,0,0-1.115.324,2.311,2.311,0,0,0-.775.894,3.059,3.059,0,0,0,0,2.578,2.311,2.311,0,0,0,.775.894A1.924,1.924,0,0,0,1395.121,251.968Z" transform="translate(-1344.944 -241.482)" fill="#fff"/>
      <path id="Path_14519" data-name="Path 14519" d="M1569.2,221.841V210.2h2.444v11.641Z" transform="translate(-1509.422 -209.528)" fill="#fff"/>
      <path id="Path_14520" data-name="Path 14520" d="M1625.382,221.749v-9.482H1622.1V210.1h9v2.167h-3.282v9.474h-2.436Z" transform="translate(-1558.139 -209.436)" fill="#fff"/>
      <path id="Path_14521" data-name="Path 14521" d="M1796.87,219.32a4.965,4.965,0,0,1-1.929-.372,4.1,4.1,0,0,1-1.495-1.052,3.7,3.7,0,0,1-.846-1.629l2.277-.49a1.97,1.97,0,0,0,.743,1.052,2.335,2.335,0,0,0,2.2.19,1.555,1.555,0,0,0,.625-.514,1.29,1.29,0,0,0,.221-.751,1.065,1.065,0,0,0-.411-.878,3.418,3.418,0,0,0-1.328-.546l-.522-.119a5.162,5.162,0,0,1-2.657-1.273,2.952,2.952,0,0,1-.854-2.143,3.332,3.332,0,0,1,.308-1.439,3.561,3.561,0,0,1,.862-1.139,3.869,3.869,0,0,1,1.289-.751,4.532,4.532,0,0,1,1.589-.269,4.4,4.4,0,0,1,1.8.364,3.754,3.754,0,0,1,1.408,1.036,3.555,3.555,0,0,1,.767,1.59l-2.246.49a1.9,1.9,0,0,0-.68-1.012,1.846,1.846,0,0,0-1.123-.356,1.767,1.767,0,0,0-.8.174,1.5,1.5,0,0,0-.561.474,1.208,1.208,0,0,0-.206.68,1.012,1.012,0,0,0,.443.878,3.729,3.729,0,0,0,1.313.5l.522.111a5.317,5.317,0,0,1,2.649,1.249,2.931,2.931,0,0,1,.862,2.183,3.509,3.509,0,0,1-1.21,2.72,3.841,3.841,0,0,1-1.344.775,5.057,5.057,0,0,1-1.669.269Z" transform="translate(-1715.156 -206.762)" fill="#fff"/>
      <path id="Path_14522" data-name="Path 14522" d="M1921.52,254.039a4.658,4.658,0,0,1-1.779-.332,3.993,3.993,0,0,1-1.4-.949,4.337,4.337,0,0,1-.917-1.463,5.285,5.285,0,0,1,0-3.646,4.374,4.374,0,0,1,.909-1.447,4.153,4.153,0,0,1,1.368-.957,4.2,4.2,0,0,1,1.708-.348,4.533,4.533,0,0,1,1.732.324,3.807,3.807,0,0,1,1.337.933,4.311,4.311,0,0,1,.862,1.439,5.341,5.341,0,0,1,.3,1.866v.577h-6.216a2.6,2.6,0,0,0,.7,1.518,1.927,1.927,0,0,0,1.408.546,2.111,2.111,0,0,0,1.874-1.083l2.048.656a3.367,3.367,0,0,1-.886,1.265,4.435,4.435,0,0,1-1.376.815,4.7,4.7,0,0,1-1.677.285Zm-.111-7.378a1.793,1.793,0,0,0-1.273.49,2.4,2.4,0,0,0-.68,1.344h3.82a2.311,2.311,0,0,0-.633-1.344,1.7,1.7,0,0,0-1.234-.49Z" transform="translate(-1829.81 -241.481)" fill="#fff"/>
      <path id="Path_14523" data-name="Path 14523" d="M2043.1,255.171v-8.659h2.111l.079,1.313a2.567,2.567,0,0,1,.886-1.06,2.326,2.326,0,0,1,1.313-.372,3,3,0,0,1,.459.04,2.589,2.589,0,0,1,.411.1l-.245,2.262a1.486,1.486,0,0,0-.371-.087,3.1,3.1,0,0,0-.388-.024,1.821,1.821,0,0,0-1.455.585,2.424,2.424,0,0,0-.506,1.645v4.247H2043.1Z" transform="translate(-1945.846 -242.859)" fill="#fff"/>
      <path id="Path_14524" data-name="Path 14524" d="M2122.642,256.651,2119.4,248h2.507l1.938,6.232,1.969-6.232h2.428L2125,256.651Z" transform="translate(-2016.112 -244.339)" fill="#fff"/>
      <path id="Path_14525" data-name="Path 14525" d="M2245.525,203.013a1.273,1.273,0,0,1-.648,1.139,1.356,1.356,0,0,1-1.329,0,1.171,1.171,0,0,1-.474-.467,1.384,1.384,0,0,1,0-1.344,1.171,1.171,0,0,1,.474-.467,1.356,1.356,0,0,1,1.329,0,1.225,1.225,0,0,1,.474.467A1.353,1.353,0,0,1,2245.525,203.013Zm-2.459,11v-8.659h2.293V214h-2.293Z" transform="translate(-2129.846 -201.7)" fill="#fff"/>
      <path id="Path_14526" data-name="Path 14526" d="M2297.263,254.039a4.446,4.446,0,0,1-1.732-.332,4.052,4.052,0,0,1-1.376-.941,4.462,4.462,0,0,1-.909-1.431,4.9,4.9,0,0,1,.949-5.1,4.286,4.286,0,0,1,3.14-1.336,4.15,4.15,0,0,1,1.724.356,3.878,3.878,0,0,1,1.337.989,3.627,3.627,0,0,1,.759,1.495l-2.183.427a2.139,2.139,0,0,0-.688-.878,1.644,1.644,0,0,0-1-.316,1.759,1.759,0,0,0-1.044.324,2.232,2.232,0,0,0-.712.909,3.147,3.147,0,0,0-.261,1.3,3.105,3.105,0,0,0,.253,1.281,2.062,2.062,0,0,0,.711.878,1.8,1.8,0,0,0,1.052.316,1.915,1.915,0,0,0,1.067-.308,1.833,1.833,0,0,0,.7-.886l2.183.427a3.364,3.364,0,0,1-.8,1.51,3.9,3.9,0,0,1-1.4.981A4.905,4.905,0,0,1,2297.263,254.039Z" transform="translate(-2175.898 -241.481)" fill="#fff"/>
      <path id="Path_14527" data-name="Path 14527" d="M2414.72,254.039a4.659,4.659,0,0,1-1.779-.332,4,4,0,0,1-1.4-.949,4.335,4.335,0,0,1-.917-1.463,5.285,5.285,0,0,1,0-3.646,4.372,4.372,0,0,1,.909-1.447,4.148,4.148,0,0,1,1.368-.957,4.2,4.2,0,0,1,1.708-.348,4.534,4.534,0,0,1,1.732.324,3.81,3.81,0,0,1,1.336.933,4.311,4.311,0,0,1,.862,1.439,5.347,5.347,0,0,1,.3,1.866v.577h-6.216a2.6,2.6,0,0,0,.7,1.518,1.927,1.927,0,0,0,1.408.546,2.11,2.11,0,0,0,1.874-1.083l2.049.656a3.377,3.377,0,0,1-.886,1.265,4.438,4.438,0,0,1-1.376.815,4.912,4.912,0,0,1-1.677.285Zm-.118-7.378a1.794,1.794,0,0,0-1.273.49,2.4,2.4,0,0,0-.68,1.344h3.82a2.313,2.313,0,0,0-.633-1.344A1.675,1.675,0,0,0,2414.6,246.661Z" transform="translate(-2284.007 -241.481)" fill="#fff"/>
      <path id="Path_14528" data-name="Path 14528" d="M2534.537,253.944a4.439,4.439,0,0,1-1.661-.293,3.507,3.507,0,0,1-1.265-.838,2.809,2.809,0,0,1-.712-1.281l2.064-.443a1.527,1.527,0,0,0,.593.807,1.741,1.741,0,0,0,1.02.293,1.569,1.569,0,0,0,.917-.245.784.784,0,0,0,.364-.672.723.723,0,0,0-.316-.6,2.616,2.616,0,0,0-1.06-.372l-.459-.079a4.169,4.169,0,0,1-2.143-.917,2.24,2.24,0,0,1-.728-1.708,2.516,2.516,0,0,1,.427-1.447,2.9,2.9,0,0,1,1.178-.989,4.048,4.048,0,0,1,1.74-.364,4.234,4.234,0,0,1,1.582.285,3.092,3.092,0,0,1,1.186.815,2.812,2.812,0,0,1,.656,1.265l-2.048.427a1.543,1.543,0,0,0-.53-.767,1.4,1.4,0,0,0-.862-.277,1.353,1.353,0,0,0-.839.245.742.742,0,0,0-.324.625.633.633,0,0,0,.316.546,2.813,2.813,0,0,0,1.091.356l.459.079a4.176,4.176,0,0,1,2.127.925,2.247,2.247,0,0,1,.735,1.732,2.61,2.61,0,0,1-.98,2.08,3.451,3.451,0,0,1-1.115.609,4.746,4.746,0,0,1-1.415.206Z" transform="translate(-2395.07 -241.386)" fill="#fff"/>
    </g>
  </g>
</svg>
