<svg width="125" height="72" viewBox="0 0 125 72" fill="none" xmlns="http://www.w3.org/2000/svg">
<g clip-path="url(#clip0_391_369)">
<path d="M69.3001 69.4639H2.54322V2.54322H69.3001V22.9873H71.756V0H0V72.0071H71.756V49.0198H69.3001V69.4639Z" fill="#FAA61A"/>
<path d="M25.0066 42.4053H22.8018L18.0537 30.6169H20.848L23.3039 37.2315L23.9806 39.098L24.6574 37.2315L27.1133 30.6169H29.8311L24.9957 42.4053H25.0066Z" fill="white"/>
<path d="M40.3532 42.4053H33.4875V30.6169H40.3532V32.9964H36.1072V35.3759H40.1785V37.7554H36.1072V40.1349H40.3532V42.4271V42.4053Z" fill="white"/>
<path d="M47.6445 42.4053H45.0139V30.6169H49.4236C51.2901 30.6169 53.0693 32.1451 53.0693 34.4372C53.0693 36.4675 51.8795 37.7445 50.3514 38.0829L53.746 42.4053H50.4387L47.6445 38.1593V42.4053ZM47.6445 32.6472V36.1291H48.9979C49.762 36.1291 50.5261 35.5397 50.5261 34.3499C50.5261 33.2475 49.762 32.6581 48.9979 32.6581H47.6445V32.6472Z" fill="white"/>
<path d="M61.9871 42.4053H57.239V30.6169H61.3104C63.3406 30.6169 64.6176 31.9704 64.6176 33.5859C64.6176 34.7756 64.1046 35.7034 63.1768 36.0418C64.5303 36.3801 65.5563 37.3952 65.5563 39.0107C65.5563 41.0518 64.2793 42.4053 61.998 42.4053H61.9871ZM60.71 32.6472H59.7822V35.365H60.71C61.4741 35.365 62.0635 34.7756 62.0635 34.0115C62.0635 33.2475 61.4741 32.6581 60.71 32.6581V32.6472ZM61.4741 37.4826H59.8586V40.3642H61.4741C62.2381 40.3642 62.9149 39.6874 62.9149 38.9234C62.9149 38.1593 62.2381 37.4826 61.4741 37.4826Z" fill="white"/>
<path d="M69.3657 42.4053V30.6169H71.9963V42.4053H69.3657Z" fill="white"/>
<path d="M83.3589 42.4053L79.2875 35.0267V42.4053H76.657V30.6169H79.2875L83.3589 37.9956V30.6169H85.9894V42.4053H83.3589Z" fill="white"/>
<path d="M94.1321 30.6169C97.4393 30.6169 99.9826 33.1602 99.9826 36.5548C99.9826 39.9494 97.4393 42.4926 94.1321 42.4926H90.6501V30.6169H94.1321ZM93.9574 40.0367C95.9876 40.0367 97.352 38.5086 97.352 36.5548C97.352 34.601 95.9986 33.0728 93.9574 33.0728H93.1934V40.0258H93.9574V40.0367Z" fill="white"/>
<path d="M111.094 42.4053H104.229V30.6169H111.094V32.9964H106.848V35.3759H110.919V37.7554H106.848V40.1349H111.094V42.4271V42.4053Z" fill="white"/>
<path d="M122.369 42.4053L118.298 35.0267V42.4053H115.667V30.6169H118.298L122.369 37.9956V30.6169H125V42.4053H122.369Z" fill="white"/>
</g>
<defs>
<clipPath id="clip0_391_369">
<rect width="125" height="72.0071" fill="white"/>
</clipPath>
</defs>
</svg>
